<?xml version="1.0" encoding="UTF-8"?>
<svg version="1.1" xmlns="http://www.w3.org/2000/svg" width="512" height="512">
<path d="M0 0 C13.3530104 11.36349609 25.877121 26.21410446 33.59423828 42.06689453 C34.33935587 43.89334453 34.33935587 43.89334453 36.44189453 44.69970703 C36.65974609 44.05001953 36.87759766 43.40033203 37.10205078 42.73095703 C38.93441353 38.58543664 41.36165023 34.95911118 43.87939453 31.19970703 C44.41072998 30.4052417 44.94206543 29.61077637 45.48950195 28.79223633 C50.34156236 21.65253979 55.64202626 15.08420202 61.44189453 8.69970703 C62.32554687 7.70970703 62.32554687 7.70970703 63.22705078 6.69970703 C82.79602744 -14.07129522 110.62175303 -23.49544274 138.63330078 -24.55029297 C170.20678281 -25.19452744 199.3536702 -15.88549122 223.44189453 4.69970703 C224.25142578 5.36357422 225.06095703 6.02744141 225.89501953 6.71142578 C247.42650844 25.02673317 260.95281446 52.8800357 264.44189453 80.69970703 C264.68191819 85.94676962 264.68760368 91.19770908 264.69189453 96.44970703 C264.69256927 97.18858154 264.69324402 97.92745605 264.69393921 98.6887207 C264.66796672 116.59468911 262.11675805 132.73231453 256.44189453 149.69970703 C256.23226074 150.34439941 256.02262695 150.9890918 255.80664062 151.65332031 C250.28663357 168.40881516 241.78528843 184.43782602 231.44189453 198.69970703 C230.66990723 199.77865234 230.66990723 199.77865234 229.88232422 200.87939453 C223.15994307 210.26263913 216.38201338 219.30954096 208.44189453 227.69970703 C207.33146924 228.96507538 206.22716867 230.23584763 205.12939453 231.51220703 C196.80469422 241.02345965 188.11560729 250.1239552 179.19189453 259.07470703 C178.35247314 259.9187207 177.51305176 260.76273437 176.64819336 261.63232422 C172.29290992 265.97685387 167.87736193 270.1784866 163.19091797 274.16503906 C161.35930011 275.77217891 159.64754729 277.46014518 157.94189453 279.19970703 C155.02058665 282.16686504 151.9619778 284.90029675 148.80908203 287.61767578 C145.80467552 290.26016534 142.87438604 292.97793598 139.94189453 295.69970703 C135.83622007 299.50703114 131.70060606 303.26284685 127.46533203 306.92626953 C124.92688282 309.15108795 122.43547677 311.42474022 119.94189453 313.69970703 C116.82282442 316.54494931 113.69434062 319.37170283 110.50439453 322.13720703 C106.6055348 325.52578655 102.80341772 329.01688233 99.00244141 332.51416016 C95.85458653 335.40923873 92.68977075 338.28331711 89.50439453 341.13720703 C83.42651998 346.59666509 77.42805497 352.14020945 71.44189453 357.69970703 C70.80413086 358.29090332 70.16636719 358.88209961 69.50927734 359.49121094 C61.71111094 366.72691791 53.98042485 373.99700669 46.60205078 381.66430664 C43.08173053 385.26836155 40.58676895 387.4199408 35.56689453 388.07470703 C27.90317759 387.155061 22.66989662 380.13077595 17.56689453 374.88720703 C12.57926518 369.78603131 7.56767526 364.83324968 2.15234375 360.18530273 C0.14987611 358.44607698 -1.71620572 356.60738891 -3.55810547 354.69970703 C-6.619278 351.59724701 -9.78952815 348.71864279 -13.09326172 345.87939453 C-16.47795522 342.88627413 -19.76360981 339.79144589 -23.05810547 336.69970703 C-27.51139807 332.52403216 -31.97772812 328.38629275 -36.60498047 324.40283203 C-39.12422823 322.20604798 -41.58913543 319.95281084 -44.05810547 317.69970703 C-47.17717558 314.85446475 -50.30565938 312.02771123 -53.49560547 309.26220703 C-57.44555808 305.8313447 -61.28997646 302.28840432 -65.13818359 298.74462891 C-67.89266306 296.21245295 -70.66544334 293.70942968 -73.49560547 291.26220703 C-78.70547386 286.73841184 -83.74386456 282.02758882 -88.79736328 277.33105469 C-90.51129643 275.74307614 -92.23299307 274.16395408 -93.95654297 272.58642578 C-101.8348407 265.34420237 -109.48251814 257.88120354 -117.05810547 250.32470703 C-118.4559729 248.93372803 -118.4559729 248.93372803 -119.88208008 247.51464844 C-124.98324113 242.40198688 -129.86268973 237.18477303 -134.55810547 231.69970703 C-135.56725445 230.56590415 -136.57892348 229.43433856 -137.59326172 228.30517578 C-150.13501827 214.21109966 -161.37496126 199.19701061 -170.55810547 182.69970703 C-170.93273926 182.03793457 -171.30737305 181.37616211 -171.69335938 180.69433594 C-185.74262792 155.75644283 -193.96072859 128.83886669 -193.8737793 100.0715332 C-193.87062341 97.89955133 -193.89417138 95.72894355 -193.91943359 93.55712891 C-194.04367369 66.02423979 -184.3116049 39.77077959 -166.55810547 18.69970703 C-165.75115234 17.71873047 -164.94419922 16.73775391 -164.11279297 15.72705078 C-124.77144418 -30.53449351 -47.01500372 -39.23564867 0 0 Z " fill="#C1E2F6" transform="translate(220.55810546875,74.30029296875)"/>
<path d="M0 0 C13.3530104 11.36349609 25.877121 26.21410446 33.59423828 42.06689453 C34.33935587 43.89334453 34.33935587 43.89334453 36.44189453 44.69970703 C36.65974609 44.05001953 36.87759766 43.40033203 37.10205078 42.73095703 C38.93441353 38.58543664 41.36165023 34.95911118 43.87939453 31.19970703 C44.41072998 30.4052417 44.94206543 29.61077637 45.48950195 28.79223633 C50.34156236 21.65253979 55.64202626 15.08420202 61.44189453 8.69970703 C62.32554687 7.70970703 62.32554687 7.70970703 63.22705078 6.69970703 C82.79602744 -14.07129522 110.62175303 -23.49544274 138.63330078 -24.55029297 C170.20678281 -25.19452744 199.3536702 -15.88549122 223.44189453 4.69970703 C224.25142578 5.36357422 225.06095703 6.02744141 225.89501953 6.71142578 C247.42650844 25.02673317 260.95281446 52.8800357 264.44189453 80.69970703 C264.68191819 85.94676962 264.68760368 91.19770908 264.69189453 96.44970703 C264.69256927 97.18858154 264.69324402 97.92745605 264.69393921 98.6887207 C264.66796672 116.59468911 262.11675805 132.73231453 256.44189453 149.69970703 C256.23226074 150.34439941 256.02262695 150.9890918 255.80664062 151.65332031 C250.28663357 168.40881516 241.78528843 184.43782602 231.44189453 198.69970703 C230.66990723 199.77865234 230.66990723 199.77865234 229.88232422 200.87939453 C223.15994307 210.26263913 216.38201338 219.30954096 208.44189453 227.69970703 C207.33146924 228.96507538 206.22716867 230.23584763 205.12939453 231.51220703 C196.80469422 241.02345965 188.11560729 250.1239552 179.19189453 259.07470703 C178.35247314 259.9187207 177.51305176 260.76273437 176.64819336 261.63232422 C172.29290992 265.97685387 167.87736193 270.1784866 163.19091797 274.16503906 C161.35930011 275.77217891 159.64754729 277.46014518 157.94189453 279.19970703 C155.02058665 282.16686504 151.9619778 284.90029675 148.80908203 287.61767578 C145.80467552 290.26016534 142.87438604 292.97793598 139.94189453 295.69970703 C135.83622007 299.50703114 131.70060606 303.26284685 127.46533203 306.92626953 C124.92688282 309.15108795 122.43547677 311.42474022 119.94189453 313.69970703 C116.82282442 316.54494931 113.69434062 319.37170283 110.50439453 322.13720703 C106.6055348 325.52578655 102.80341772 329.01688233 99.00244141 332.51416016 C95.85458653 335.40923873 92.68977075 338.28331711 89.50439453 341.13720703 C83.42651998 346.59666509 77.42805497 352.14020945 71.44189453 357.69970703 C70.80413086 358.29090332 70.16636719 358.88209961 69.50927734 359.49121094 C61.71111094 366.72691791 53.98042485 373.99700669 46.60205078 381.66430664 C43.08173053 385.26836155 40.58676895 387.4199408 35.56689453 388.07470703 C27.90317759 387.155061 22.66989662 380.13077595 17.56689453 374.88720703 C12.57926518 369.78603131 7.56767526 364.83324968 2.15234375 360.18530273 C0.14987611 358.44607698 -1.71620572 356.60738891 -3.55810547 354.69970703 C-6.619278 351.59724701 -9.78952815 348.71864279 -13.09326172 345.87939453 C-16.47795522 342.88627413 -19.76360981 339.79144589 -23.05810547 336.69970703 C-27.51139807 332.52403216 -31.97772812 328.38629275 -36.60498047 324.40283203 C-39.12422823 322.20604798 -41.58913543 319.95281084 -44.05810547 317.69970703 C-47.17717558 314.85446475 -50.30565938 312.02771123 -53.49560547 309.26220703 C-57.44555808 305.8313447 -61.28997646 302.28840432 -65.13818359 298.74462891 C-67.89266306 296.21245295 -70.66544334 293.70942968 -73.49560547 291.26220703 C-78.70547386 286.73841184 -83.74386456 282.02758882 -88.79736328 277.33105469 C-90.51129643 275.74307614 -92.23299307 274.16395408 -93.95654297 272.58642578 C-101.8348407 265.34420237 -109.48251814 257.88120354 -117.05810547 250.32470703 C-118.4559729 248.93372803 -118.4559729 248.93372803 -119.88208008 247.51464844 C-124.98324113 242.40198688 -129.86268973 237.18477303 -134.55810547 231.69970703 C-135.56725445 230.56590415 -136.57892348 229.43433856 -137.59326172 228.30517578 C-150.13501827 214.21109966 -161.37496126 199.19701061 -170.55810547 182.69970703 C-170.93273926 182.03793457 -171.30737305 181.37616211 -171.69335938 180.69433594 C-185.74262792 155.75644283 -193.96072859 128.83886669 -193.8737793 100.0715332 C-193.87062341 97.89955133 -193.89417138 95.72894355 -193.91943359 93.55712891 C-194.04367369 66.02423979 -184.3116049 39.77077959 -166.55810547 18.69970703 C-165.75115234 17.71873047 -164.94419922 16.73775391 -164.11279297 15.72705078 C-124.77144418 -30.53449351 -47.01500372 -39.23564867 0 0 Z M-139.55810547 20.69970703 C-140.56873047 21.46283203 -141.57935547 22.22595703 -142.62060547 23.01220703 C-160.95711213 39.78815993 -172.32255116 64.50477567 -173.69873047 89.22583008 C-174.72546562 117.94617907 -168.26505892 143.53153463 -154.55810547 168.69970703 C-154.23729004 169.29976562 -153.91647461 169.89982422 -153.5859375 170.51806641 C-146.59776999 183.53614584 -138.00535871 195.35959258 -128.55810547 206.69970703 C-127.93693848 207.44824951 -127.93693848 207.44824951 -127.30322266 208.21191406 C-112.92849392 225.46888537 -97.44329476 242.65683967 -80.28076172 257.19580078 C-78.4538004 258.79076702 -76.7575126 260.46988545 -75.05810547 262.19970703 C-72.15811194 265.14511433 -69.12184115 267.85434412 -65.99169922 270.55126953 C-62.79215448 273.37590774 -59.67756284 276.28719863 -56.55810547 279.19970703 C-52.2789216 283.19170112 -47.97744887 287.1376184 -43.54638672 290.96142578 C-41.01757619 293.17227192 -38.53937983 295.43567147 -36.05810547 297.69970703 C-32.93903536 300.54494931 -29.81055156 303.37170283 -26.62060547 306.13720703 C-22.72252474 309.52510951 -18.92127764 313.01561662 -15.12084961 316.51196289 C-11.95048687 319.42746212 -8.76424358 322.32346094 -5.55810547 325.19970703 C3.1627481 333.03603663 11.7729376 340.98377815 20.31689453 349.01220703 C21.03047119 349.68195557 21.74404785 350.3517041 22.47924805 351.04174805 C26.53628631 354.8625742 30.52271119 358.73752325 34.44189453 362.69970703 C37.47166882 361.34739516 39.52662066 359.8449016 41.83251953 357.46923828 C42.46029297 356.83050781 43.08806641 356.19177734 43.73486328 355.53369141 C44.38068359 354.86660156 45.02650391 354.19951172 45.69189453 353.51220703 C50.11595851 348.96600632 54.60267758 344.61459257 59.41064453 340.47485352 C62.9745569 337.36028539 66.3853999 334.08356758 69.81689453 330.82470703 C75.19205896 325.74266995 80.59077168 320.69968726 86.11376953 315.77783203 C88.78238969 313.39577511 91.42463022 310.9859537 94.06689453 308.57470703 C97.14499019 305.77213322 100.23491323 302.99002828 103.37939453 300.26220703 C107.3285682 296.83202128 111.17211758 293.28967185 115.01977539 289.74682617 C117.79665823 287.1943025 120.59161468 284.66994957 123.44189453 282.19970703 C127.31807081 278.83820976 131.09452859 275.3711721 134.8684082 271.89599609 C138.13936523 268.88586857 141.43690798 265.90868286 144.75439453 262.94970703 C148.20959187 259.852704 151.51236464 256.65789186 154.76220703 253.34814453 C156.42941139 251.71195793 158.15841155 250.20763041 159.94189453 248.69970703 C168.77089045 241.08016261 177.21970681 232.60607467 184.73095703 223.68408203 C186.93027525 221.1332746 189.25590906 218.71224894 191.56689453 216.26220703 C223.3016421 182.040514 245.66078932 138.85195913 244.80908203 91.45361328 C243.69053973 63.53368679 231.0676866 40.06101992 211.13330078 20.97314453 C205.74638062 16.03858296 199.78519263 12.27738844 193.44189453 8.69970703 C192.15025391 7.966875 192.15025391 7.966875 190.83251953 7.21923828 C174.9458118 -1.21733037 159.26963937 -3.65827191 141.44189453 -3.61279297 C140.17861328 -3.62890625 138.91533203 -3.64501953 137.61376953 -3.66162109 C114.56998234 -3.67347489 93.82752624 5.44577419 77.44970703 21.49658203 C66.07520932 33.25398363 57.57457934 47.24243485 49.80908203 61.53173828 C49.36266357 62.34908447 48.91624512 63.16643066 48.45629883 64.00854492 C47.59120025 65.60010346 46.73540839 67.19676686 45.89038086 68.79907227 C42.15731994 75.71149385 42.15731994 75.71149385 38.44189453 77.69970703 C34.87067465 78.23159084 33.11146283 78.11574947 30.02783203 76.19970703 C26.65369069 72.93769728 25.0236666 69.45355173 23.00439453 65.26220703 C12.77632603 45.04516265 -0.59031872 23.77337162 -19.55810547 10.69970703 C-20.28642578 10.17248047 -21.01474609 9.64525391 -21.76513672 9.10205078 C-36.22248243 -0.52796996 -54.35963404 -3.66057479 -71.37060547 -3.55029297 C-72.55203125 -3.55802734 -73.73345703 -3.56576172 -74.95068359 -3.57373047 C-99.7788103 -3.51931266 -120.82633842 4.49438255 -139.55810547 20.69970703 Z " fill="#0B93E2" transform="translate(220.55810546875,74.30029296875)"/>
</svg>
